# xmcd CD database file
#
# Track frame offsets:
#	182
#	12717
#	27802
#	41452
#	55555
#	67855
#	82335
#	96182
#	109027
#	122232
#	133095
#	145835
#	158550
#	172050
#	183135
#	214602
#	242787
#	254492
#	267200
#	279390
#
# Disc length: 4347 seconds
#
# Revision: 11
# Processed by: cddbd v1.5.2PL0 Copyright (c) Steve Scherf et al.
# Submitted via: CDex 1.78
#
DISCID=1a10f914
DTITLE=Various Artist - Atlantic Blues: Guitar
DYEAR=1986
DGENRE=Blues
TTITLE0=Blind Willie McTell - Broke Down Engine
TTITLE1=Mississippi Fred McDowell - Shake 'Em On Down
TTITLE2=John Lee Hooker - My Baby Don't Love Me
TTITLE3=Stick McGhee - Tall Pretty Woman
TTITLE4=Texas Johnny Brown - The Blues Rock
TTITLE5=Texas Johnny Brown - There Goes the Blues
TTITLE6=Texas Johnny Brown - Bongo Boogie
TTITLE7=T-Bone Walker - Two Bones And A Pick
TTITLE8=Chuck Norris - Let Me Know
TTITLE9=Guitar Slim - Down Through the Years
TTITLE10=Cornell Dupree - Okie Dokie Stomp
TTITLE11=Big Joe Turner - TV Mama
TTITLE12=Al King - Reconsider Baby
TTITLE13=Mickey Baker - Midnight Midnight
TTITLE14=Ike and Tina Turner - I Smell Trouble
TTITLE15=B.B. King - Why I Sing The Blues
TTITLE16=Albert King - Crosscut Saw
TTITLE17=Albert King - Born Under A Bad Sign
TTITLE18=John Hammond, Jr. - Shake For Me
TTITLE19=Stevie Ray Vaughn - Flood Down In Texas
EXTD=LABEL =Atlantic Recording Corporation\nID =781695-2\nUPC =07567-81695-26\nCOPYRIGHT =1986\n*****\n YEAR: 1986
EXTT0=
EXTT1=
EXTT2=
EXTT3=
EXTT4=
EXTT5=
EXTT6=
EXTT7=
EXTT8=
EXTT9=
EXTT10=
EXTT11=
EXTT12=
EXTT13=
EXTT14=
EXTT15=
EXTT16=
EXTT17=
EXTT18=
EXTT19=
PLAYORDER=
